<svg width="1920" height="171" viewBox="0 0 1920 171" fill="none" xmlns="http://www.w3.org/2000/svg">
<rect width="1920" height="171" fill="#F5F5FA"/>
<rect x="160" y="30" width="1600" height="2" fill="#E6E6F0"/>
<g clip-path="url(#clip0_22728_11491)">
<path d="M162.848 75.216L162.8 73.776L169.584 66.8H170.944L166 71.984L165.328 72.704L162.848 75.216ZM161.824 78V66.8H163.008V78H161.824ZM169.872 78L165.04 72.432L165.84 71.568L171.28 78H169.872ZM172.445 81.184C172.05 81.184 171.672 81.12 171.309 80.992C170.957 80.864 170.653 80.672 170.397 80.416L170.925 79.568C171.138 79.7707 171.368 79.9253 171.613 80.032C171.869 80.1493 172.152 80.208 172.461 80.208C172.834 80.208 173.154 80.1013 173.421 79.888C173.698 79.6853 173.96 79.3227 174.205 78.8L174.749 77.568L174.877 77.392L178.333 69.6H179.453L175.245 79.008C175.01 79.552 174.749 79.984 174.461 80.304C174.184 80.624 173.88 80.848 173.549 80.976C173.218 81.1147 172.85 81.184 172.445 81.184ZM174.685 78.24L170.813 69.6H171.997L175.421 77.312L174.685 78.24ZM181.053 78V69.6H182.189V78H181.053ZM181.629 67.744C181.394 67.744 181.197 67.664 181.037 67.504C180.877 67.344 180.797 67.152 180.797 66.928C180.797 66.704 180.877 66.5173 181.037 66.368C181.197 66.208 181.394 66.128 181.629 66.128C181.863 66.128 182.061 66.2027 182.221 66.352C182.381 66.5013 182.461 66.688 182.461 66.912C182.461 67.1467 182.381 67.344 182.221 67.504C182.071 67.664 181.874 67.744 181.629 67.744ZM187.51 78L183.782 69.6H184.966L188.39 77.392H187.83L191.302 69.6H192.422L188.678 78H187.51ZM192.787 80.336L193.491 77.376L193.619 78.064C193.373 78.064 193.165 77.984 192.995 77.824C192.835 77.664 192.755 77.456 192.755 77.2C192.755 76.944 192.835 76.736 192.995 76.576C193.165 76.416 193.368 76.336 193.603 76.336C193.848 76.336 194.045 76.4213 194.195 76.592C194.355 76.7627 194.435 76.9653 194.435 77.2C194.435 77.2853 194.429 77.3707 194.419 77.456C194.408 77.5413 194.387 77.6373 194.355 77.744C194.323 77.8507 194.28 77.9787 194.227 78.128L193.555 80.336H192.787ZM201.293 78V66.8H202.269L207.389 75.536H206.877L211.949 66.8H212.925V78H211.789V68.576H212.061L207.389 76.576H206.829L202.125 68.576H202.429V78H201.293ZM219.902 78.08C219.027 78.08 218.259 77.8987 217.598 77.536C216.937 77.1627 216.419 76.656 216.046 76.016C215.673 75.3653 215.486 74.624 215.486 73.792C215.486 72.96 215.662 72.224 216.014 71.584C216.377 70.944 216.867 70.4427 217.486 70.08C218.115 69.7067 218.819 69.52 219.598 69.52C220.387 69.52 221.086 69.7013 221.694 70.064C222.313 70.416 222.798 70.9173 223.15 71.568C223.502 72.208 223.678 72.9493 223.678 73.792C223.678 73.8453 223.673 73.904 223.662 73.968C223.662 74.0213 223.662 74.08 223.662 74.144H216.35V73.296H223.054L222.606 73.632C222.606 73.024 222.473 72.4853 222.206 72.016C221.95 71.536 221.598 71.1627 221.15 70.896C220.702 70.6293 220.185 70.496 219.598 70.496C219.022 70.496 218.505 70.6293 218.046 70.896C217.587 71.1627 217.23 71.536 216.974 72.016C216.718 72.496 216.59 73.0453 216.59 73.664V73.84C216.59 74.48 216.729 75.0453 217.006 75.536C217.294 76.016 217.689 76.3947 218.19 76.672C218.702 76.9387 219.283 77.072 219.934 77.072C220.446 77.072 220.921 76.9813 221.358 76.8C221.806 76.6187 222.19 76.3413 222.51 75.968L223.15 76.704C222.777 77.152 222.307 77.4933 221.742 77.728C221.187 77.9627 220.574 78.08 219.902 78.08ZM229.478 78.08C228.646 78.08 227.9 77.8987 227.238 77.536C226.588 77.1627 226.076 76.656 225.702 76.016C225.329 75.3653 225.142 74.624 225.142 73.792C225.142 72.9493 225.329 72.208 225.702 71.568C226.076 70.928 226.588 70.4267 227.238 70.064C227.9 69.7013 228.646 69.52 229.478 69.52C230.193 69.52 230.838 69.6587 231.414 69.936C231.99 70.2133 232.444 70.6293 232.774 71.184L231.926 71.76C231.638 71.3333 231.281 71.0187 230.854 70.816C230.428 70.6133 229.964 70.512 229.462 70.512C228.865 70.512 228.326 70.6507 227.846 70.928C227.366 71.1947 226.988 71.5733 226.71 72.064C226.433 72.5547 226.294 73.1307 226.294 73.792C226.294 74.4533 226.433 75.0293 226.71 75.52C226.988 76.0107 227.366 76.3947 227.846 76.672C228.326 76.9387 228.865 77.072 229.462 77.072C229.964 77.072 230.428 76.9707 230.854 76.768C231.281 76.5653 231.638 76.256 231.926 75.84L232.774 76.416C232.444 76.96 231.99 77.376 231.414 77.664C230.838 77.9413 230.193 78.08 229.478 78.08ZM239.169 69.52C239.852 69.52 240.449 69.6533 240.961 69.92C241.484 70.176 241.889 70.5707 242.177 71.104C242.476 71.6373 242.625 72.3093 242.625 73.12V78H241.489V73.232C241.489 72.3467 241.265 71.68 240.817 71.232C240.38 70.7733 239.761 70.544 238.961 70.544C238.364 70.544 237.841 70.6667 237.393 70.912C236.956 71.1467 236.614 71.4933 236.369 71.952C236.134 72.4 236.017 72.944 236.017 73.584V78H234.881V66.128H236.017V71.904L235.793 71.472C236.06 70.864 236.486 70.3893 237.073 70.048C237.66 69.696 238.358 69.52 239.169 69.52ZM249.981 69.52C250.664 69.52 251.261 69.6533 251.773 69.92C252.296 70.176 252.701 70.5707 252.989 71.104C253.288 71.6373 253.437 72.3093 253.437 73.12V78H252.301V73.232C252.301 72.3467 252.077 71.68 251.629 71.232C251.192 70.7733 250.573 70.544 249.773 70.544C249.176 70.544 248.653 70.6667 248.205 70.912C247.768 71.1467 247.427 71.4933 247.181 71.952C246.947 72.4 246.829 72.944 246.829 73.584V78H245.693V69.6H246.781V71.904L246.605 71.472C246.872 70.864 247.299 70.3893 247.885 70.048C248.472 69.696 249.171 69.52 249.981 69.52ZM256.506 78V69.6H257.642V78H256.506ZM257.082 67.744C256.847 67.744 256.65 67.664 256.49 67.504C256.33 67.344 256.25 67.152 256.25 66.928C256.25 66.704 256.33 66.5173 256.49 66.368C256.65 66.208 256.847 66.128 257.082 66.128C257.317 66.128 257.514 66.2027 257.674 66.352C257.834 66.5013 257.914 66.688 257.914 66.912C257.914 67.1467 257.834 67.344 257.674 67.504C257.525 67.664 257.327 67.744 257.082 67.744ZM261.699 75.824L261.731 74.368L266.963 69.6H268.355L264.659 73.136L264.019 73.68L261.699 75.824ZM260.803 78V66.128H261.939V78H260.803ZM267.315 78L263.811 73.632L264.547 72.752L268.707 78H267.315ZM273.508 78.08C272.697 78.08 271.967 77.8987 271.316 77.536C270.676 77.1627 270.169 76.656 269.796 76.016C269.423 75.3653 269.236 74.624 269.236 73.792C269.236 72.9493 269.423 72.208 269.796 71.568C270.169 70.928 270.676 70.4267 271.316 70.064C271.956 69.7013 272.687 69.52 273.508 69.52C274.34 69.52 275.076 69.7013 275.716 70.064C276.367 70.4267 276.873 70.928 277.236 71.568C277.609 72.208 277.796 72.9493 277.796 73.792C277.796 74.624 277.609 75.3653 277.236 76.016C276.873 76.656 276.367 77.1627 275.716 77.536C275.065 77.8987 274.329 78.08 273.508 78.08ZM273.508 77.072C274.116 77.072 274.655 76.9387 275.124 76.672C275.593 76.3947 275.961 76.0107 276.228 75.52C276.505 75.0187 276.644 74.4427 276.644 73.792C276.644 73.1307 276.505 72.5547 276.228 72.064C275.961 71.5733 275.593 71.1947 275.124 70.928C274.655 70.6507 274.121 70.512 273.524 70.512C272.927 70.512 272.393 70.6507 271.924 70.928C271.455 71.1947 271.081 71.5733 270.804 72.064C270.527 72.5547 270.388 73.1307 270.388 73.792C270.388 74.4427 270.527 75.0187 270.804 75.52C271.081 76.0107 271.455 76.3947 271.924 76.672C272.393 76.9387 272.921 77.072 273.508 77.072ZM282.041 78L278.313 69.6H279.497L282.921 77.392H282.361L285.833 69.6H286.953L283.209 78H282.041ZM293.567 78V76.144L293.519 75.84V72.736C293.519 72.0213 293.316 71.472 292.911 71.088C292.516 70.704 291.924 70.512 291.135 70.512C290.591 70.512 290.073 70.6027 289.583 70.784C289.092 70.9653 288.676 71.2053 288.335 71.504L287.823 70.656C288.249 70.2933 288.761 70.016 289.359 69.824C289.956 69.6213 290.585 69.52 291.247 69.52C292.335 69.52 293.172 69.792 293.759 70.336C294.356 70.8693 294.655 71.6853 294.655 72.784V78H293.567ZM290.671 78.08C290.041 78.08 289.492 77.9787 289.023 77.776C288.564 77.5627 288.212 77.2747 287.967 76.912C287.721 76.5387 287.599 76.112 287.599 75.632C287.599 75.1947 287.7 74.8 287.903 74.448C288.116 74.0853 288.457 73.7973 288.927 73.584C289.407 73.36 290.047 73.248 290.847 73.248H293.743V74.096H290.879C290.068 74.096 289.503 74.24 289.183 74.528C288.873 74.816 288.719 75.1733 288.719 75.6C288.719 76.08 288.905 76.464 289.279 76.752C289.652 77.04 290.175 77.184 290.847 77.184C291.487 77.184 292.036 77.04 292.495 76.752C292.964 76.4533 293.305 76.0267 293.519 75.472L293.775 76.256C293.561 76.8107 293.188 77.2533 292.655 77.584C292.132 77.9147 291.471 78.08 290.671 78.08ZM304.184 78.08C303.49 78.08 302.834 77.984 302.216 77.792C301.597 77.5893 301.112 77.3387 300.76 77.04L301.272 76.144C301.613 76.4 302.05 76.624 302.584 76.816C303.117 76.9973 303.677 77.088 304.264 77.088C305.064 77.088 305.64 76.9653 305.992 76.72C306.344 76.464 306.52 76.128 306.52 75.712C306.52 75.4027 306.418 75.1627 306.216 74.992C306.024 74.8107 305.768 74.6773 305.448 74.592C305.128 74.496 304.77 74.416 304.376 74.352C303.981 74.288 303.586 74.2133 303.192 74.128C302.808 74.0427 302.456 73.92 302.136 73.76C301.816 73.5893 301.554 73.36 301.352 73.072C301.16 72.784 301.064 72.4 301.064 71.92C301.064 71.4613 301.192 71.0507 301.448 70.688C301.704 70.3253 302.077 70.0427 302.568 69.84C303.069 69.6267 303.677 69.52 304.392 69.52C304.936 69.52 305.48 69.5947 306.024 69.744C306.568 69.8827 307.016 70.0693 307.368 70.304L306.872 71.216C306.498 70.96 306.098 70.7787 305.672 70.672C305.245 70.5547 304.818 70.496 304.392 70.496C303.634 70.496 303.074 70.6293 302.712 70.896C302.36 71.152 302.184 71.4827 302.184 71.888C302.184 72.208 302.28 72.4587 302.472 72.64C302.674 72.8213 302.936 72.9653 303.256 73.072C303.586 73.168 303.944 73.248 304.328 73.312C304.722 73.376 305.112 73.456 305.496 73.552C305.89 73.6373 306.248 73.76 306.568 73.92C306.898 74.0693 307.16 74.288 307.352 74.576C307.554 74.8533 307.656 75.2213 307.656 75.68C307.656 76.1707 307.517 76.5973 307.24 76.96C306.973 77.312 306.578 77.5893 306.056 77.792C305.544 77.984 304.92 78.08 304.184 78.08ZM312.396 78.08C311.607 78.08 310.999 77.8667 310.572 77.44C310.146 77.0133 309.932 76.4107 309.932 75.632V67.744H311.068V75.568C311.068 76.0587 311.191 76.4373 311.436 76.704C311.692 76.9707 312.055 77.104 312.524 77.104C313.026 77.104 313.442 76.96 313.772 76.672L314.172 77.488C313.948 77.6907 313.676 77.84 313.356 77.936C313.047 78.032 312.727 78.08 312.396 78.08ZM308.428 70.544V69.6H313.628V70.544H308.428ZM316.24 78V69.6H317.328V71.888L317.216 71.488C317.451 70.848 317.846 70.3627 318.4 70.032C318.955 69.6907 319.643 69.52 320.464 69.52V70.624C320.422 70.624 320.379 70.624 320.336 70.624C320.294 70.6133 320.251 70.608 320.208 70.608C319.323 70.608 318.63 70.88 318.128 71.424C317.627 71.9573 317.376 72.72 317.376 73.712V78H316.24ZM321.818 80.336L322.522 77.376L322.65 78.064C322.405 78.064 322.197 77.984 322.026 77.824C321.866 77.664 321.786 77.456 321.786 77.2C321.786 76.944 321.866 76.736 322.026 76.576C322.197 76.416 322.399 76.336 322.634 76.336C322.879 76.336 323.077 76.4213 323.226 76.592C323.386 76.7627 323.466 76.9653 323.466 77.2C323.466 77.2853 323.461 77.3707 323.45 77.456C323.439 77.5413 323.418 77.6373 323.386 77.744C323.354 77.8507 323.311 77.9787 323.258 78.128L322.586 80.336H321.818ZM331.284 78V67.28L331.796 67.824H328.644V66.8H332.436V78H331.284ZM334.921 75.056V74.224L340.857 66.8H342.137L336.249 74.224L335.625 74.032H344.633V75.056H334.921ZM341.241 78V75.056L341.273 74.032V71.44H342.393V78H341.241ZM344.912 79.6L350.193 64.528H351.233L345.953 79.6H344.912ZM353.94 78V67.28L354.452 67.824H351.3V66.8H355.092V78H353.94Z" fill="#323264"/>
<circle cx="370" cy="72" r="3" fill="#B3B3BA"/>
<path d="M388.076 76.644C387.412 76.644 386.796 76.536 386.228 76.32C385.668 76.104 385.18 75.8 384.764 75.408C384.356 75.016 384.036 74.556 383.804 74.028C383.58 73.5 383.468 72.924 383.468 72.3C383.468 71.676 383.58 71.1 383.804 70.572C384.036 70.044 384.36 69.584 384.776 69.192C385.192 68.8 385.68 68.496 386.24 68.28C386.8 68.064 387.408 67.956 388.064 67.956C388.728 67.956 389.336 68.064 389.888 68.28C390.448 68.496 390.932 68.8 391.34 69.192C391.756 69.584 392.08 70.044 392.312 70.572C392.544 71.092 392.66 71.668 392.66 72.3C392.66 72.924 392.544 73.504 392.312 74.04C392.08 74.568 391.756 75.028 391.34 75.42C390.932 75.804 390.448 76.104 389.888 76.32C389.336 76.536 388.732 76.644 388.076 76.644ZM388.064 74.988C388.44 74.988 388.784 74.924 389.096 74.796C389.416 74.668 389.696 74.484 389.936 74.244C390.176 74.004 390.36 73.72 390.488 73.392C390.624 73.064 390.692 72.7 390.692 72.3C390.692 71.9 390.624 71.536 390.488 71.208C390.36 70.88 390.176 70.596 389.936 70.356C389.704 70.116 389.428 69.932 389.108 69.804C388.788 69.676 388.44 69.612 388.064 69.612C387.688 69.612 387.34 69.676 387.02 69.804C386.708 69.932 386.432 70.116 386.192 70.356C385.952 70.596 385.764 70.88 385.628 71.208C385.5 71.536 385.436 71.9 385.436 72.3C385.436 72.692 385.5 73.056 385.628 73.392C385.764 73.72 385.948 74.004 386.18 74.244C386.42 74.484 386.7 74.668 387.02 74.796C387.34 74.924 387.688 74.988 388.064 74.988ZM395.121 76.5V68.1H396.729L401.685 74.148H400.905V68.1H402.825V76.5H401.229L396.261 70.452H397.041V76.5H395.121ZM410.211 76.5V68.1H411.819L415.395 74.028H414.543L418.059 68.1H419.655L419.679 76.5H417.855L417.843 70.896H418.179L415.371 75.612H414.495L411.627 70.896H412.035V76.5H410.211ZM421.568 76.5L425.312 68.1H427.232L430.988 76.5H428.948L425.876 69.084H426.644L423.56 76.5H421.568ZM423.44 74.7L423.956 73.224H428.276L428.804 74.7H423.44ZM432.859 76.5V68.1H436.495C437.247 68.1 437.895 68.224 438.439 68.472C438.983 68.712 439.403 69.06 439.699 69.516C439.995 69.972 440.143 70.516 440.143 71.148C440.143 71.772 439.995 72.312 439.699 72.768C439.403 73.224 438.983 73.576 438.439 73.824C437.895 74.064 437.247 74.184 436.495 74.184H433.939L434.803 73.308V76.5H432.859ZM434.803 73.524L433.939 72.6H436.387C436.987 72.6 437.435 72.472 437.731 72.216C438.027 71.96 438.175 71.604 438.175 71.148C438.175 70.684 438.027 70.324 437.731 70.068C437.435 69.812 436.987 69.684 436.387 69.684H433.939L434.803 68.76V73.524Z" fill="#24A3FF"/>
<g clip-path="url(#clip1_22728_11491)">
<path d="M198 122.116C198 111.559 189.493 103 179 103C168.507 103 160 111.559 160 122.116C160 131.658 166.948 139.566 176.031 141V127.642H171.207V122.116H176.031V117.905C176.031 113.114 178.868 110.467 183.208 110.467C185.287 110.467 187.461 110.841 187.461 110.841V115.545H185.065C182.705 115.545 181.969 117.018 181.969 118.53V122.116H187.238L186.396 127.642H181.969V141C191.052 139.566 198 131.658 198 122.116Z" fill="#24A3FF"/>
</g>
<circle cx="211" cy="122" r="3" fill="#B3B3BA"/>
<path d="M229.768 128.192C228.85 128.192 228.029 127.968 227.304 127.52C226.578 127.061 226.008 126.4 225.592 125.536C225.176 124.672 224.968 123.627 224.968 122.4C224.968 121.173 225.176 120.128 225.592 119.264C226.008 118.4 226.578 117.744 227.304 117.296C228.029 116.837 228.85 116.608 229.768 116.608C230.696 116.608 231.517 116.837 232.232 117.296C232.957 117.744 233.528 118.4 233.944 119.264C234.36 120.128 234.568 121.173 234.568 122.4C234.568 123.627 234.36 124.672 233.944 125.536C233.528 126.4 232.957 127.061 232.232 127.52C231.517 127.968 230.696 128.192 229.768 128.192ZM229.768 126C230.205 126 230.584 125.877 230.904 125.632C231.234 125.387 231.49 124.997 231.672 124.464C231.864 123.931 231.96 123.243 231.96 122.4C231.96 121.557 231.864 120.869 231.672 120.336C231.49 119.803 231.234 119.413 230.904 119.168C230.584 118.923 230.205 118.8 229.768 118.8C229.341 118.8 228.962 118.923 228.632 119.168C228.312 119.413 228.056 119.803 227.864 120.336C227.682 120.869 227.592 121.557 227.592 122.4C227.592 123.243 227.682 123.931 227.864 124.464C228.056 124.997 228.312 125.387 228.632 125.632C228.962 125.877 229.341 126 229.768 126ZM240.467 128.192C239.528 128.192 238.707 128.053 238.003 127.776C237.299 127.488 236.75 127.088 236.355 126.576C235.96 126.053 235.763 125.445 235.763 124.752C235.763 124.059 235.955 123.472 236.339 122.992C236.734 122.501 237.283 122.133 237.987 121.888C238.691 121.632 239.518 121.504 240.467 121.504C241.427 121.504 242.259 121.632 242.963 121.888C243.678 122.133 244.227 122.501 244.611 122.992C245.006 123.472 245.203 124.059 245.203 124.752C245.203 125.445 245.006 126.053 244.611 126.576C244.216 127.088 243.662 127.488 242.947 127.776C242.243 128.053 241.416 128.192 240.467 128.192ZM240.467 126.288C241.118 126.288 241.63 126.144 242.003 125.856C242.387 125.568 242.579 125.173 242.579 124.672C242.579 124.171 242.387 123.781 242.003 123.504C241.63 123.216 241.118 123.072 240.467 123.072C239.827 123.072 239.32 123.216 238.947 123.504C238.574 123.781 238.387 124.171 238.387 124.672C238.387 125.173 238.574 125.568 238.947 125.856C239.32 126.144 239.827 126.288 240.467 126.288ZM240.467 122.816C239.603 122.816 238.846 122.699 238.195 122.464C237.555 122.229 237.054 121.888 236.691 121.44C236.339 120.981 236.163 120.437 236.163 119.808C236.163 119.147 236.344 118.581 236.707 118.112C237.07 117.632 237.576 117.264 238.227 117.008C238.878 116.741 239.624 116.608 240.467 116.608C241.331 116.608 242.083 116.741 242.723 117.008C243.374 117.264 243.88 117.632 244.243 118.112C244.616 118.581 244.803 119.147 244.803 119.808C244.803 120.437 244.622 120.981 244.259 121.44C243.907 121.888 243.406 122.229 242.755 122.464C242.104 122.699 241.342 122.816 240.467 122.816ZM240.467 121.296C241.011 121.296 241.438 121.173 241.747 120.928C242.067 120.683 242.227 120.347 242.227 119.92C242.227 119.472 242.062 119.125 241.731 118.88C241.411 118.635 240.99 118.512 240.467 118.512C239.955 118.512 239.539 118.635 239.219 118.88C238.899 119.125 238.739 119.472 238.739 119.92C238.739 120.347 238.894 120.683 239.203 120.928C239.512 121.173 239.934 121.296 240.467 121.296ZM251.19 128.192C250.272 128.192 249.451 127.968 248.726 127.52C248 127.061 247.43 126.4 247.014 125.536C246.598 124.672 246.39 123.627 246.39 122.4C246.39 121.173 246.598 120.128 247.014 119.264C247.43 118.4 248 117.744 248.726 117.296C249.451 116.837 250.272 116.608 251.19 116.608C252.118 116.608 252.939 116.837 253.654 117.296C254.379 117.744 254.95 118.4 255.366 119.264C255.782 120.128 255.99 121.173 255.99 122.4C255.99 123.627 255.782 124.672 255.366 125.536C254.95 126.4 254.379 127.061 253.654 127.52C252.939 127.968 252.118 128.192 251.19 128.192ZM251.19 126C251.627 126 252.006 125.877 252.326 125.632C252.656 125.387 252.912 124.997 253.094 124.464C253.286 123.931 253.382 123.243 253.382 122.4C253.382 121.557 253.286 120.869 253.094 120.336C252.912 119.803 252.656 119.413 252.326 119.168C252.006 118.923 251.627 118.8 251.19 118.8C250.763 118.8 250.384 118.923 250.054 119.168C249.734 119.413 249.478 119.803 249.286 120.336C249.104 120.869 249.014 121.557 249.014 122.4C249.014 123.243 249.104 123.931 249.286 124.464C249.478 124.997 249.734 125.387 250.054 125.632C250.384 125.877 250.763 126 251.19 126ZM262.049 128.192C261.132 128.192 260.31 127.968 259.585 127.52C258.86 127.061 258.289 126.4 257.873 125.536C257.457 124.672 257.249 123.627 257.249 122.4C257.249 121.173 257.457 120.128 257.873 119.264C258.289 118.4 258.86 117.744 259.585 117.296C260.31 116.837 261.132 116.608 262.049 116.608C262.977 116.608 263.798 116.837 264.513 117.296C265.238 117.744 265.809 118.4 266.225 119.264C266.641 120.128 266.849 121.173 266.849 122.4C266.849 123.627 266.641 124.672 266.225 125.536C265.809 126.4 265.238 127.061 264.513 127.52C263.798 127.968 262.977 128.192 262.049 128.192ZM262.049 126C262.486 126 262.865 125.877 263.185 125.632C263.516 125.387 263.772 124.997 263.953 124.464C264.145 123.931 264.241 123.243 264.241 122.4C264.241 121.557 264.145 120.869 263.953 120.336C263.772 119.803 263.516 119.413 263.185 119.168C262.865 118.923 262.486 118.8 262.049 118.8C261.622 118.8 261.244 118.923 260.913 119.168C260.593 119.413 260.337 119.803 260.145 120.336C259.964 120.869 259.873 121.557 259.873 122.4C259.873 123.243 259.964 123.931 260.145 124.464C260.337 124.997 260.593 125.387 260.913 125.632C261.244 125.877 261.622 126 262.049 126ZM272.544 128V126.32L276.864 122.24C277.205 121.931 277.456 121.653 277.616 121.408C277.776 121.163 277.882 120.939 277.936 120.736C278 120.533 278.032 120.347 278.032 120.176C278.032 119.728 277.877 119.387 277.568 119.152C277.269 118.907 276.826 118.784 276.24 118.784C275.77 118.784 275.333 118.875 274.928 119.056C274.533 119.237 274.197 119.52 273.92 119.904L272.032 118.688C272.458 118.048 273.056 117.541 273.824 117.168C274.592 116.795 275.477 116.608 276.48 116.608C277.312 116.608 278.037 116.747 278.656 117.024C279.285 117.291 279.77 117.669 280.112 118.16C280.464 118.651 280.64 119.237 280.64 119.92C280.64 120.283 280.592 120.645 280.496 121.008C280.41 121.36 280.229 121.733 279.952 122.128C279.685 122.523 279.29 122.965 278.768 123.456L275.184 126.832L274.688 125.888H281.008V128H272.544ZM283.805 128V117.76L284.925 118.88H281.565V116.8H286.397V128H283.805ZM290.071 128V117.76L291.191 118.88H287.831V116.8H292.663V128H290.071ZM303.076 116.608C304.11 116.608 305.001 116.821 305.748 117.248C306.494 117.675 307.07 118.299 307.476 119.12C307.881 119.931 308.084 120.944 308.084 122.16C308.084 123.451 307.838 124.544 307.348 125.44C306.868 126.336 306.201 127.019 305.348 127.488C304.494 127.957 303.502 128.192 302.372 128.192C301.785 128.192 301.22 128.128 300.676 128C300.132 127.872 299.662 127.68 299.268 127.424L300.228 125.52C300.537 125.733 300.868 125.883 301.22 125.968C301.572 126.043 301.94 126.08 302.324 126.08C303.284 126.08 304.046 125.787 304.612 125.2C305.188 124.613 305.476 123.744 305.476 122.592C305.476 122.4 305.47 122.187 305.46 121.952C305.449 121.717 305.422 121.483 305.38 121.248L306.084 121.92C305.902 122.336 305.646 122.688 305.316 122.976C304.985 123.253 304.601 123.467 304.164 123.616C303.726 123.755 303.236 123.824 302.692 123.824C301.977 123.824 301.326 123.68 300.74 123.392C300.164 123.104 299.7 122.699 299.348 122.176C299.006 121.653 298.836 121.04 298.836 120.336C298.836 119.568 299.022 118.907 299.396 118.352C299.78 117.797 300.292 117.371 300.932 117.072C301.582 116.763 302.297 116.608 303.076 116.608ZM303.236 118.544C302.862 118.544 302.537 118.613 302.26 118.752C301.982 118.88 301.764 119.072 301.604 119.328C301.444 119.573 301.364 119.867 301.364 120.208C301.364 120.72 301.534 121.131 301.876 121.44C302.228 121.739 302.692 121.888 303.268 121.888C303.641 121.888 303.972 121.819 304.26 121.68C304.558 121.531 304.788 121.328 304.948 121.072C305.108 120.816 305.188 120.528 305.188 120.208C305.188 119.888 305.108 119.605 304.948 119.36C304.798 119.104 304.58 118.907 304.292 118.768C304.004 118.619 303.652 118.544 303.236 118.544ZM309.169 128V126.32L313.489 122.24C313.83 121.931 314.081 121.653 314.241 121.408C314.401 121.163 314.507 120.939 314.561 120.736C314.625 120.533 314.657 120.347 314.657 120.176C314.657 119.728 314.502 119.387 314.193 119.152C313.894 118.907 313.451 118.784 312.865 118.784C312.395 118.784 311.958 118.875 311.553 119.056C311.158 119.237 310.822 119.52 310.545 119.904L308.657 118.688C309.083 118.048 309.681 117.541 310.449 117.168C311.217 116.795 312.102 116.608 313.105 116.608C313.937 116.608 314.662 116.747 315.281 117.024C315.91 117.291 316.395 117.669 316.737 118.16C317.089 118.651 317.265 119.237 317.265 119.92C317.265 120.283 317.217 120.645 317.121 121.008C317.035 121.36 316.854 121.733 316.577 122.128C316.31 122.523 315.915 122.965 315.393 123.456L311.809 126.832L311.313 125.888H317.633V128H309.169ZM320.494 128L325.006 117.792L325.678 118.912H319.646L320.798 117.696V120.736H318.494V116.8H327.47V118.48L323.31 128H320.494Z" fill="#46466E"/>
<circle cx="341" cy="122" r="3" fill="#B3B3BA"/>
<path d="M359.312 128.128C358.384 128.128 357.557 127.941 356.832 127.568C356.107 127.184 355.536 126.656 355.12 125.984C354.715 125.312 354.512 124.549 354.512 123.696C354.512 122.832 354.715 122.069 355.12 121.408C355.536 120.736 356.107 120.213 356.832 119.84C357.557 119.456 358.384 119.264 359.312 119.264C360.219 119.264 361.008 119.456 361.68 119.84C362.352 120.213 362.848 120.752 363.168 121.456L361.232 122.496C361.008 122.091 360.725 121.792 360.384 121.6C360.053 121.408 359.691 121.312 359.296 121.312C358.869 121.312 358.485 121.408 358.144 121.6C357.803 121.792 357.531 122.064 357.328 122.416C357.136 122.768 357.04 123.195 357.04 123.696C357.04 124.197 357.136 124.624 357.328 124.976C357.531 125.328 357.803 125.6 358.144 125.792C358.485 125.984 358.869 126.08 359.296 126.08C359.691 126.08 360.053 125.989 360.384 125.808C360.725 125.616 361.008 125.312 361.232 124.896L363.168 125.952C362.848 126.645 362.352 127.184 361.68 127.568C361.008 127.941 360.219 128.128 359.312 128.128ZM368.592 128.128C367.674 128.128 366.858 127.936 366.144 127.552C365.44 127.168 364.88 126.645 364.464 125.984C364.058 125.312 363.856 124.549 363.856 123.696C363.856 122.832 364.058 122.069 364.464 121.408C364.88 120.736 365.44 120.213 366.144 119.84C366.858 119.456 367.674 119.264 368.592 119.264C369.498 119.264 370.309 119.456 371.024 119.84C371.738 120.213 372.298 120.731 372.704 121.392C373.109 122.053 373.312 122.821 373.312 123.696C373.312 124.549 373.109 125.312 372.704 125.984C372.298 126.645 371.738 127.168 371.024 127.552C370.309 127.936 369.498 128.128 368.592 128.128ZM368.592 126.08C369.008 126.08 369.381 125.984 369.712 125.792C370.042 125.6 370.304 125.328 370.496 124.976C370.688 124.613 370.784 124.187 370.784 123.696C370.784 123.195 370.688 122.768 370.496 122.416C370.304 122.064 370.042 121.792 369.712 121.6C369.381 121.408 369.008 121.312 368.592 121.312C368.176 121.312 367.802 121.408 367.472 121.6C367.141 121.792 366.874 122.064 366.672 122.416C366.48 122.768 366.384 123.195 366.384 123.696C366.384 124.187 366.48 124.613 366.672 124.976C366.874 125.328 367.141 125.6 367.472 125.792C367.802 125.984 368.176 126.08 368.592 126.08ZM380.212 119.264C380.895 119.264 381.503 119.403 382.036 119.68C382.58 119.947 383.007 120.363 383.316 120.928C383.625 121.483 383.78 122.197 383.78 123.072V128H381.284V123.456C381.284 122.763 381.129 122.251 380.82 121.92C380.521 121.589 380.095 121.424 379.54 121.424C379.145 121.424 378.788 121.509 378.468 121.68C378.159 121.84 377.913 122.091 377.732 122.432C377.561 122.773 377.476 123.211 377.476 123.744V128H374.98V119.392H377.364V121.776L376.916 121.056C377.225 120.48 377.668 120.037 378.244 119.728C378.82 119.419 379.476 119.264 380.212 119.264ZM389.563 128.128C388.549 128.128 387.76 127.872 387.195 127.36C386.629 126.837 386.347 126.064 386.347 125.04V117.488H388.843V125.008C388.843 125.371 388.939 125.653 389.131 125.856C389.323 126.048 389.584 126.144 389.915 126.144C390.309 126.144 390.645 126.037 390.923 125.824L391.595 127.584C391.339 127.765 391.029 127.904 390.667 128C390.315 128.085 389.947 128.128 389.563 128.128ZM385.019 121.504V119.584H390.987V121.504H385.019ZM398.276 128V126.32L398.116 125.952V122.944C398.116 122.411 397.95 121.995 397.62 121.696C397.3 121.397 396.804 121.248 396.132 121.248C395.673 121.248 395.22 121.323 394.772 121.472C394.334 121.611 393.961 121.803 393.652 122.048L392.756 120.304C393.225 119.973 393.79 119.717 394.452 119.536C395.113 119.355 395.785 119.264 396.468 119.264C397.78 119.264 398.798 119.573 399.524 120.192C400.249 120.811 400.612 121.776 400.612 123.088V128H398.276ZM395.652 128.128C394.98 128.128 394.404 128.016 393.924 127.792C393.444 127.557 393.076 127.243 392.82 126.848C392.564 126.453 392.436 126.011 392.436 125.52C392.436 125.008 392.558 124.56 392.804 124.176C393.06 123.792 393.46 123.493 394.004 123.28C394.548 123.056 395.257 122.944 396.132 122.944H398.42V124.4H396.404C395.817 124.4 395.412 124.496 395.188 124.688C394.974 124.88 394.868 125.12 394.868 125.408C394.868 125.728 394.99 125.984 395.236 126.176C395.492 126.357 395.838 126.448 396.276 126.448C396.692 126.448 397.065 126.352 397.396 126.16C397.726 125.957 397.966 125.664 398.116 125.28L398.5 126.432C398.318 126.987 397.988 127.408 397.508 127.696C397.028 127.984 396.409 128.128 395.652 128.128ZM407.093 128.128C406.165 128.128 405.339 127.941 404.613 127.568C403.888 127.184 403.317 126.656 402.901 125.984C402.496 125.312 402.293 124.549 402.293 123.696C402.293 122.832 402.496 122.069 402.901 121.408C403.317 120.736 403.888 120.213 404.613 119.84C405.339 119.456 406.165 119.264 407.093 119.264C408 119.264 408.789 119.456 409.461 119.84C410.133 120.213 410.629 120.752 410.949 121.456L409.013 122.496C408.789 122.091 408.507 121.792 408.165 121.6C407.835 121.408 407.472 121.312 407.077 121.312C406.651 121.312 406.267 121.408 405.925 121.6C405.584 121.792 405.312 122.064 405.109 122.416C404.917 122.768 404.821 123.195 404.821 123.696C404.821 124.197 404.917 124.624 405.109 124.976C405.312 125.328 405.584 125.6 405.925 125.792C406.267 125.984 406.651 126.08 407.077 126.08C407.472 126.08 407.835 125.989 408.165 125.808C408.507 125.616 408.789 125.312 409.013 124.896L410.949 125.952C410.629 126.645 410.133 127.184 409.461 127.568C408.789 127.941 408 128.128 407.093 128.128ZM416.031 128.128C415.018 128.128 414.229 127.872 413.663 127.36C413.098 126.837 412.815 126.064 412.815 125.04V117.488H415.311V125.008C415.311 125.371 415.407 125.653 415.599 125.856C415.791 126.048 416.053 126.144 416.383 126.144C416.778 126.144 417.114 126.037 417.391 125.824L418.063 127.584C417.807 127.765 417.498 127.904 417.135 128C416.783 128.085 416.415 128.128 416.031 128.128ZM411.487 121.504V119.584H417.455V121.504H411.487ZM426.617 131.296C425.465 131.296 424.419 131.109 423.481 130.736C422.542 130.373 421.731 129.861 421.049 129.2C420.377 128.539 419.854 127.76 419.481 126.864C419.118 125.968 418.937 124.992 418.937 123.936C418.937 122.891 419.118 121.925 419.481 121.04C419.854 120.155 420.382 119.381 421.065 118.72C421.747 118.059 422.563 117.547 423.513 117.184C424.462 116.821 425.518 116.64 426.681 116.64C427.801 116.64 428.825 116.816 429.753 117.168C430.681 117.509 431.481 117.995 432.153 118.624C432.825 119.253 433.342 119.995 433.705 120.848C434.067 121.691 434.249 122.613 434.249 123.616C434.249 124.565 434.11 125.376 433.833 126.048C433.566 126.72 433.187 127.232 432.697 127.584C432.206 127.936 431.63 128.112 430.969 128.112C430.243 128.112 429.667 127.899 429.241 127.472C428.814 127.045 428.601 126.421 428.601 125.6V124.864L428.649 124L428.505 121.68V120.144H430.681V125.328C430.681 125.712 430.755 125.979 430.905 126.128C431.054 126.277 431.235 126.352 431.449 126.352C431.694 126.352 431.902 126.256 432.073 126.064C432.254 125.872 432.393 125.579 432.489 125.184C432.585 124.779 432.633 124.267 432.633 123.648C432.633 122.837 432.489 122.096 432.201 121.424C431.923 120.752 431.518 120.171 430.985 119.68C430.462 119.189 429.833 118.816 429.097 118.56C428.371 118.293 427.566 118.16 426.681 118.16C425.795 118.16 424.985 118.304 424.249 118.592C423.513 118.88 422.883 119.285 422.361 119.808C421.838 120.32 421.433 120.928 421.145 121.632C420.867 122.336 420.729 123.104 420.729 123.936C420.729 124.789 420.867 125.573 421.145 126.288C421.422 126.992 421.817 127.6 422.329 128.112C422.851 128.635 423.475 129.04 424.201 129.328C424.926 129.616 425.731 129.76 426.617 129.76C427.129 129.76 427.657 129.701 428.201 129.584C428.745 129.477 429.267 129.301 429.769 129.056L430.281 130.528C429.79 130.773 429.214 130.96 428.553 131.088C427.902 131.227 427.257 131.296 426.617 131.296ZM426.041 128.112C425.358 128.112 424.734 127.947 424.169 127.616C423.614 127.275 423.171 126.8 422.841 126.192C422.51 125.573 422.345 124.864 422.345 124.064C422.345 123.264 422.505 122.56 422.825 121.952C423.155 121.344 423.598 120.875 424.153 120.544C424.718 120.203 425.347 120.032 426.041 120.032C426.745 120.032 427.347 120.192 427.849 120.512C428.35 120.832 428.734 121.291 429.001 121.888C429.267 122.485 429.401 123.211 429.401 124.064C429.401 124.907 429.273 125.632 429.017 126.24C428.761 126.848 428.382 127.312 427.881 127.632C427.39 127.952 426.777 128.112 426.041 128.112ZM426.536 126.272C426.921 126.272 427.262 126.187 427.561 126.016C427.87 125.835 428.11 125.579 428.281 125.248C428.451 124.917 428.537 124.523 428.537 124.064C428.537 123.595 428.451 123.2 428.281 122.88C428.11 122.56 427.87 122.315 427.561 122.144C427.262 121.973 426.921 121.888 426.536 121.888C426.153 121.888 425.811 121.973 425.513 122.144C425.214 122.315 424.979 122.565 424.809 122.896C424.638 123.216 424.553 123.605 424.553 124.064C424.553 124.523 424.638 124.917 424.809 125.248C424.979 125.568 425.214 125.819 425.513 126C425.811 126.181 426.153 126.272 426.536 126.272ZM436.331 128V119.2C436.331 118.229 436.619 117.456 437.195 116.88C437.771 116.293 438.592 116 439.659 116C440.022 116 440.368 116.037 440.699 116.112C441.04 116.187 441.328 116.304 441.563 116.464L440.907 118.272C440.768 118.176 440.614 118.101 440.443 118.048C440.272 117.995 440.091 117.968 439.899 117.968C439.536 117.968 439.254 118.075 439.051 118.288C438.859 118.491 438.763 118.8 438.763 119.216V120.016L438.827 121.088V128H436.331ZM435.003 121.504V119.584H440.971V121.504H435.003ZM446.201 128.128C445.284 128.128 444.468 127.936 443.753 127.552C443.049 127.168 442.489 126.645 442.073 125.984C441.668 125.312 441.465 124.549 441.465 123.696C441.465 122.832 441.668 122.069 442.073 121.408C442.489 120.736 443.049 120.213 443.753 119.84C444.468 119.456 445.284 119.264 446.201 119.264C447.108 119.264 447.918 119.456 448.633 119.84C449.348 120.213 449.908 120.731 450.313 121.392C450.718 122.053 450.921 122.821 450.921 123.696C450.921 124.549 450.718 125.312 450.313 125.984C449.908 126.645 449.348 127.168 448.633 127.552C447.918 127.936 447.108 128.128 446.201 128.128ZM446.201 126.08C446.617 126.08 446.99 125.984 447.321 125.792C447.652 125.6 447.913 125.328 448.105 124.976C448.297 124.613 448.393 124.187 448.393 123.696C448.393 123.195 448.297 122.768 448.105 122.416C447.913 122.064 447.652 121.792 447.321 121.6C446.99 121.408 446.617 121.312 446.201 121.312C445.785 121.312 445.412 121.408 445.081 121.6C444.75 121.792 444.484 122.064 444.281 122.416C444.089 122.768 443.993 123.195 443.993 123.696C443.993 124.187 444.089 124.613 444.281 124.976C444.484 125.328 444.75 125.6 445.081 125.792C445.412 125.984 445.785 126.08 446.201 126.08ZM452.59 128V119.392H454.974V121.824L454.638 121.12C454.894 120.512 455.304 120.053 455.87 119.744C456.435 119.424 457.123 119.264 457.934 119.264V121.568C457.827 121.557 457.731 121.552 457.646 121.552C457.56 121.541 457.47 121.536 457.374 121.536C456.691 121.536 456.136 121.733 455.71 122.128C455.294 122.512 455.086 123.115 455.086 123.936V128H452.59ZM462.376 128.128C461.64 128.128 460.931 128.043 460.248 127.872C459.576 127.691 459.043 127.467 458.648 127.2L459.48 125.408C459.875 125.653 460.339 125.856 460.872 126.016C461.416 126.165 461.949 126.24 462.472 126.24C463.048 126.24 463.453 126.171 463.688 126.032C463.933 125.893 464.056 125.701 464.056 125.456C464.056 125.253 463.96 125.104 463.768 125.008C463.587 124.901 463.341 124.821 463.032 124.768C462.723 124.715 462.381 124.661 462.008 124.608C461.645 124.555 461.277 124.485 460.904 124.4C460.531 124.304 460.189 124.165 459.88 123.984C459.571 123.803 459.32 123.557 459.128 123.248C458.947 122.939 458.856 122.539 458.856 122.048C458.856 121.504 459.011 121.024 459.32 120.608C459.64 120.192 460.099 119.867 460.696 119.632C461.293 119.387 462.008 119.264 462.84 119.264C463.427 119.264 464.024 119.328 464.632 119.456C465.24 119.584 465.747 119.771 466.152 120.016L465.32 121.792C464.904 121.547 464.483 121.381 464.056 121.296C463.64 121.2 463.235 121.152 462.84 121.152C462.285 121.152 461.88 121.227 461.624 121.376C461.368 121.525 461.24 121.717 461.24 121.952C461.24 122.165 461.331 122.325 461.512 122.432C461.704 122.539 461.955 122.624 462.264 122.688C462.573 122.752 462.909 122.811 463.272 122.864C463.645 122.907 464.019 122.976 464.392 123.072C464.765 123.168 465.101 123.307 465.4 123.488C465.709 123.659 465.96 123.899 466.152 124.208C466.344 124.507 466.44 124.901 466.44 125.392C466.44 125.925 466.28 126.4 465.96 126.816C465.64 127.221 465.176 127.541 464.568 127.776C463.971 128.011 463.24 128.128 462.376 128.128ZM471.5 128.128C470.487 128.128 469.697 127.872 469.132 127.36C468.567 126.837 468.284 126.064 468.284 125.04V117.488H470.78V125.008C470.78 125.371 470.876 125.653 471.068 125.856C471.26 126.048 471.521 126.144 471.852 126.144C472.247 126.144 472.583 126.037 472.86 125.824L473.532 127.584C473.276 127.765 472.967 127.904 472.604 128C472.252 128.085 471.884 128.128 471.5 128.128ZM466.956 121.504V119.584H472.924V121.504H466.956ZM478.565 128.128C477.851 128.128 477.211 127.989 476.645 127.712C476.091 127.435 475.659 127.013 475.349 126.448C475.04 125.872 474.885 125.141 474.885 124.256V119.392H477.381V123.888C477.381 124.603 477.531 125.131 477.829 125.472C478.139 125.803 478.571 125.968 479.125 125.968C479.509 125.968 479.851 125.888 480.149 125.728C480.448 125.557 480.683 125.301 480.853 124.96C481.024 124.608 481.109 124.171 481.109 123.648V119.392H483.605V128H481.237V125.632L481.669 126.32C481.381 126.917 480.955 127.371 480.389 127.68C479.835 127.979 479.227 128.128 478.565 128.128ZM489.614 128.128C488.803 128.128 488.072 127.947 487.422 127.584C486.771 127.211 486.254 126.693 485.87 126.032C485.496 125.371 485.31 124.592 485.31 123.696C485.31 122.789 485.496 122.005 485.87 121.344C486.254 120.683 486.771 120.171 487.422 119.808C488.072 119.445 488.803 119.264 489.614 119.264C490.339 119.264 490.974 119.424 491.518 119.744C492.062 120.064 492.483 120.549 492.782 121.2C493.08 121.851 493.23 122.683 493.23 123.696C493.23 124.699 493.086 125.531 492.798 126.192C492.51 126.843 492.094 127.328 491.55 127.648C491.016 127.968 490.371 128.128 489.614 128.128ZM490.046 126.08C490.451 126.08 490.819 125.984 491.15 125.792C491.48 125.6 491.742 125.328 491.934 124.976C492.136 124.613 492.238 124.187 492.238 123.696C492.238 123.195 492.136 122.768 491.934 122.416C491.742 122.064 491.48 121.792 491.15 121.6C490.819 121.408 490.451 121.312 490.046 121.312C489.63 121.312 489.256 121.408 488.926 121.6C488.595 121.792 488.328 122.064 488.126 122.416C487.934 122.768 487.838 123.195 487.838 123.696C487.838 124.187 487.934 124.613 488.126 124.976C488.328 125.328 488.595 125.6 488.926 125.792C489.256 125.984 489.63 126.08 490.046 126.08ZM492.302 128V126.24L492.35 123.68L492.19 121.136V116.128H494.686V128H492.302ZM498.084 131.232C497.636 131.232 497.193 131.163 496.756 131.024C496.318 130.885 495.961 130.693 495.684 130.448L496.596 128.672C496.788 128.843 497.006 128.976 497.252 129.072C497.508 129.168 497.758 129.216 498.004 129.216C498.356 129.216 498.633 129.131 498.836 128.96C499.049 128.8 499.241 128.528 499.412 128.144L499.86 127.088L500.052 126.816L503.14 119.392H505.54L501.652 128.528C501.374 129.221 501.054 129.765 500.692 130.16C500.34 130.555 499.945 130.832 499.508 130.992C499.081 131.152 498.606 131.232 498.084 131.232ZM499.556 128.336L495.716 119.392H498.292L501.268 126.592L499.556 128.336ZM506.987 128.128C506.56 128.128 506.192 127.984 505.883 127.696C505.584 127.397 505.435 127.019 505.435 126.56C505.435 126.101 505.584 125.733 505.883 125.456C506.192 125.168 506.56 125.024 506.987 125.024C507.424 125.024 507.792 125.168 508.091 125.456C508.389 125.733 508.539 126.101 508.539 126.56C508.539 127.019 508.389 127.397 508.091 127.696C507.792 127.984 507.424 128.128 506.987 128.128ZM513.126 128.128C512.39 128.128 511.681 128.043 510.998 127.872C510.326 127.691 509.793 127.467 509.398 127.2L510.23 125.408C510.625 125.653 511.089 125.856 511.622 126.016C512.166 126.165 512.699 126.24 513.222 126.24C513.798 126.24 514.203 126.171 514.438 126.032C514.683 125.893 514.806 125.701 514.806 125.456C514.806 125.253 514.71 125.104 514.518 125.008C514.337 124.901 514.091 124.821 513.782 124.768C513.473 124.715 513.131 124.661 512.758 124.608C512.395 124.555 512.027 124.485 511.654 124.4C511.281 124.304 510.939 124.165 510.63 123.984C510.321 123.803 510.07 123.557 509.878 123.248C509.697 122.939 509.606 122.539 509.606 122.048C509.606 121.504 509.761 121.024 510.07 120.608C510.39 120.192 510.849 119.867 511.446 119.632C512.043 119.387 512.758 119.264 513.59 119.264C514.177 119.264 514.774 119.328 515.382 119.456C515.99 119.584 516.497 119.771 516.902 120.016L516.07 121.792C515.654 121.547 515.233 121.381 514.806 121.296C514.39 121.2 513.985 121.152 513.59 121.152C513.035 121.152 512.63 121.227 512.374 121.376C512.118 121.525 511.99 121.717 511.99 121.952C511.99 122.165 512.081 122.325 512.262 122.432C512.454 122.539 512.705 122.624 513.014 122.688C513.323 122.752 513.659 122.811 514.022 122.864C514.395 122.907 514.769 122.976 515.142 123.072C515.515 123.168 515.851 123.307 516.15 123.488C516.459 123.659 516.71 123.899 516.902 124.208C517.094 124.507 517.19 124.901 517.19 125.392C517.19 125.925 517.03 126.4 516.71 126.816C516.39 127.221 515.926 127.541 515.318 127.776C514.721 128.011 513.99 128.128 513.126 128.128ZM523.818 128.128C523.093 128.128 522.458 127.968 521.914 127.648C521.37 127.328 520.943 126.843 520.634 126.192C520.335 125.531 520.186 124.699 520.186 123.696C520.186 122.683 520.33 121.851 520.618 121.2C520.906 120.549 521.322 120.064 521.866 119.744C522.41 119.424 523.061 119.264 523.818 119.264C524.629 119.264 525.354 119.451 525.994 119.824C526.645 120.187 527.157 120.699 527.53 121.36C527.914 122.021 528.106 122.8 528.106 123.696C528.106 124.603 527.914 125.387 527.53 126.048C527.157 126.709 526.645 127.221 525.994 127.584C525.354 127.947 524.629 128.128 523.818 128.128ZM518.73 131.104V119.392H521.114V121.152L521.066 123.712L521.226 126.256V131.104H518.73ZM523.386 126.08C523.802 126.08 524.17 125.984 524.49 125.792C524.821 125.6 525.082 125.328 525.274 124.976C525.477 124.613 525.578 124.187 525.578 123.696C525.578 123.195 525.477 122.768 525.274 122.416C525.082 122.064 524.821 121.792 524.49 121.6C524.17 121.408 523.802 121.312 523.386 121.312C522.97 121.312 522.597 121.408 522.266 121.6C521.935 121.792 521.674 122.064 521.482 122.416C521.29 122.768 521.194 123.195 521.194 123.696C521.194 124.187 521.29 124.613 521.482 124.976C521.674 125.328 521.935 125.6 522.266 125.792C522.597 125.984 522.97 126.08 523.386 126.08ZM534.916 128V126.32L534.756 125.952V122.944C534.756 122.411 534.591 121.995 534.26 121.696C533.94 121.397 533.444 121.248 532.772 121.248C532.314 121.248 531.86 121.323 531.412 121.472C530.975 121.611 530.602 121.803 530.292 122.048L529.396 120.304C529.866 119.973 530.431 119.717 531.092 119.536C531.754 119.355 532.426 119.264 533.108 119.264C534.42 119.264 535.439 119.573 536.164 120.192C536.89 120.811 537.252 121.776 537.252 123.088V128H534.916ZM532.292 128.128C531.62 128.128 531.044 128.016 530.564 127.792C530.084 127.557 529.716 127.243 529.46 126.848C529.204 126.453 529.076 126.011 529.076 125.52C529.076 125.008 529.199 124.56 529.444 124.176C529.7 123.792 530.1 123.493 530.644 123.28C531.188 123.056 531.898 122.944 532.772 122.944H535.06V124.4H533.044C532.458 124.4 532.052 124.496 531.828 124.688C531.615 124.88 531.508 125.12 531.508 125.408C531.508 125.728 531.631 125.984 531.876 126.176C532.132 126.357 532.479 126.448 532.916 126.448C533.332 126.448 533.706 126.352 534.036 126.16C534.367 125.957 534.607 125.664 534.756 125.28L535.14 126.432C534.959 126.987 534.628 127.408 534.148 127.696C533.668 127.984 533.05 128.128 532.292 128.128ZM543.734 128.128C542.806 128.128 541.979 127.941 541.254 127.568C540.529 127.184 539.958 126.656 539.542 125.984C539.137 125.312 538.934 124.549 538.934 123.696C538.934 122.832 539.137 122.069 539.542 121.408C539.958 120.736 540.529 120.213 541.254 119.84C541.979 119.456 542.806 119.264 543.734 119.264C544.641 119.264 545.43 119.456 546.102 119.84C546.774 120.213 547.27 120.752 547.59 121.456L545.654 122.496C545.43 122.091 545.147 121.792 544.806 121.6C544.475 121.408 544.113 121.312 543.718 121.312C543.291 121.312 542.907 121.408 542.566 121.6C542.225 121.792 541.953 122.064 541.75 122.416C541.558 122.768 541.462 123.195 541.462 123.696C541.462 124.197 541.558 124.624 541.75 124.976C541.953 125.328 542.225 125.6 542.566 125.792C542.907 125.984 543.291 126.08 543.718 126.08C544.113 126.08 544.475 125.989 544.806 125.808C545.147 125.616 545.43 125.312 545.654 124.896L547.59 125.952C547.27 126.645 546.774 127.184 546.102 127.568C545.43 127.941 544.641 128.128 543.734 128.128ZM553.19 128.128C552.208 128.128 551.344 127.936 550.598 127.552C549.862 127.168 549.291 126.645 548.886 125.984C548.48 125.312 548.278 124.549 548.278 123.696C548.278 122.832 548.475 122.069 548.87 121.408C549.275 120.736 549.824 120.213 550.518 119.84C551.211 119.456 551.995 119.264 552.87 119.264C553.712 119.264 554.47 119.445 555.142 119.808C555.824 120.16 556.363 120.672 556.758 121.344C557.152 122.005 557.35 122.8 557.35 123.728C557.35 123.824 557.344 123.936 557.334 124.064C557.323 124.181 557.312 124.293 557.302 124.4H550.31V122.944H555.99L555.03 123.376C555.03 122.928 554.939 122.539 554.758 122.208C554.576 121.877 554.326 121.621 554.006 121.44C553.686 121.248 553.312 121.152 552.886 121.152C552.459 121.152 552.08 121.248 551.75 121.44C551.43 121.621 551.179 121.883 550.998 122.224C550.816 122.555 550.726 122.949 550.726 123.408V123.792C550.726 124.261 550.827 124.677 551.03 125.04C551.243 125.392 551.536 125.664 551.91 125.856C552.294 126.037 552.742 126.128 553.254 126.128C553.712 126.128 554.112 126.059 554.454 125.92C554.806 125.781 555.126 125.573 555.414 125.296L556.742 126.736C556.347 127.184 555.851 127.531 555.254 127.776C554.656 128.011 553.968 128.128 553.19 128.128Z" fill="#24A3FF"/>
</g>
<path d="M1490.51 78.048C1489.71 78.048 1488.97 77.904 1488.29 77.616C1487.6 77.328 1487.01 76.928 1486.49 76.416C1485.98 75.8933 1485.58 75.2907 1485.29 74.608C1485.02 73.9253 1484.88 73.1893 1484.88 72.4C1484.88 71.6107 1485.02 70.8747 1485.31 70.192C1485.6 69.5093 1486 68.912 1486.51 68.4C1487.02 67.8773 1487.62 67.472 1488.3 67.184C1489 66.896 1489.74 66.752 1490.54 66.752C1491.34 66.752 1492.08 66.896 1492.77 67.184C1493.46 67.4613 1494.06 67.856 1494.56 68.368C1495.07 68.88 1495.47 69.4773 1495.74 70.16C1496.03 70.832 1496.17 71.568 1496.17 72.368C1496.17 73.168 1496.03 73.9147 1495.74 74.608C1495.45 75.2907 1495.05 75.8933 1494.53 76.416C1494.01 76.928 1493.42 77.328 1492.73 77.616C1492.05 77.904 1491.31 78.048 1490.51 78.048ZM1490.49 77.456C1491.22 77.456 1491.89 77.328 1492.49 77.072C1493.1 76.8053 1493.64 76.4427 1494.09 75.984C1494.56 75.5253 1494.93 74.9867 1495.18 74.368C1495.44 73.7387 1495.57 73.072 1495.57 72.368C1495.57 71.6533 1495.44 70.992 1495.18 70.384C1494.94 69.776 1494.59 69.2427 1494.13 68.784C1493.68 68.3253 1493.15 67.9733 1492.53 67.728C1491.92 67.472 1491.26 67.344 1490.54 67.344C1489.82 67.344 1489.15 67.472 1488.53 67.728C1487.91 67.984 1487.37 68.3467 1486.91 68.816C1486.46 69.2747 1486.11 69.808 1485.85 70.416C1485.6 71.024 1485.47 71.6853 1485.47 72.4C1485.47 73.104 1485.6 73.7653 1485.85 74.384C1486.11 74.992 1486.46 75.5307 1486.91 76C1487.37 76.4587 1487.9 76.816 1488.51 77.072C1489.13 77.328 1489.79 77.456 1490.49 77.456ZM1490.65 75.728C1490.01 75.728 1489.44 75.5893 1488.94 75.312C1488.44 75.024 1488.05 74.6293 1487.76 74.128C1487.47 73.6267 1487.33 73.0507 1487.33 72.4C1487.33 71.7493 1487.47 71.1733 1487.76 70.672C1488.05 70.1707 1488.44 69.7813 1488.94 69.504C1489.44 69.216 1490.01 69.072 1490.65 69.072C1491.2 69.072 1491.69 69.184 1492.13 69.408C1492.57 69.6213 1492.93 69.92 1493.2 70.304L1492.51 70.816C1492.29 70.5067 1492.01 70.2773 1491.69 70.128C1491.37 69.9787 1491.02 69.904 1490.64 69.904C1490.18 69.904 1489.77 70.0107 1489.41 70.224C1489.05 70.4267 1488.77 70.7147 1488.56 71.088C1488.35 71.4613 1488.24 71.8987 1488.24 72.4C1488.24 72.9013 1488.35 73.3387 1488.56 73.712C1488.77 74.0853 1489.05 74.3787 1489.41 74.592C1489.77 74.7947 1490.18 74.896 1490.64 74.896C1491.02 74.896 1491.37 74.8213 1491.69 74.672C1492.01 74.5227 1492.29 74.2933 1492.51 73.984L1493.2 74.48C1492.93 74.8747 1492.57 75.184 1492.13 75.408C1491.69 75.6213 1491.2 75.728 1490.65 75.728ZM1501.8 78V77.184L1506.45 72.624C1506.88 72.208 1507.2 71.8453 1507.41 71.536C1507.63 71.216 1507.77 70.9173 1507.84 70.64C1507.92 70.3627 1507.96 70.1013 1507.96 69.856C1507.96 69.2053 1507.73 68.6933 1507.28 68.32C1506.85 67.9467 1506.2 67.76 1505.33 67.76C1504.67 67.76 1504.08 67.8613 1503.57 68.064C1503.07 68.2667 1502.64 68.5813 1502.28 69.008L1501.46 68.304C1501.9 67.792 1502.46 67.3973 1503.14 67.12C1503.82 66.8427 1504.59 66.704 1505.43 66.704C1506.19 66.704 1506.84 66.8267 1507.4 67.072C1507.95 67.3067 1508.38 67.6533 1508.68 68.112C1508.99 68.5707 1509.14 69.1093 1509.14 69.728C1509.14 70.0907 1509.09 70.448 1508.98 70.8C1508.88 71.152 1508.7 71.5253 1508.44 71.92C1508.18 72.304 1507.8 72.7413 1507.3 73.232L1503.03 77.424L1502.71 76.976H1509.65V78H1501.8ZM1515.53 78.096C1514.67 78.096 1513.9 77.872 1513.23 77.424C1512.55 76.9653 1512.03 76.3147 1511.64 75.472C1511.26 74.6187 1511.07 73.5947 1511.07 72.4C1511.07 71.2053 1511.26 70.1867 1511.64 69.344C1512.03 68.4907 1512.55 67.84 1513.23 67.392C1513.9 66.9333 1514.67 66.704 1515.53 66.704C1516.39 66.704 1517.16 66.9333 1517.83 67.392C1518.51 67.84 1519.03 68.4907 1519.42 69.344C1519.81 70.1867 1520.01 71.2053 1520.01 72.4C1520.01 73.5947 1519.81 74.6187 1519.42 75.472C1519.03 76.3147 1518.51 76.9653 1517.83 77.424C1517.16 77.872 1516.39 78.096 1515.53 78.096ZM1515.53 77.04C1516.19 77.04 1516.77 76.864 1517.26 76.512C1517.75 76.1493 1518.13 75.6267 1518.41 74.944C1518.69 74.2507 1518.83 73.4027 1518.83 72.4C1518.83 71.3973 1518.69 70.5547 1518.41 69.872C1518.13 69.1787 1517.75 68.656 1517.26 68.304C1516.77 67.9413 1516.19 67.76 1515.53 67.76C1514.89 67.76 1514.32 67.9413 1513.82 68.304C1513.32 68.656 1512.93 69.1787 1512.65 69.872C1512.37 70.5547 1512.23 71.3973 1512.23 72.4C1512.23 73.4027 1512.37 74.2507 1512.65 74.944C1512.93 75.6267 1513.32 76.1493 1513.82 76.512C1514.32 76.864 1514.89 77.04 1515.53 77.04ZM1521.45 78V77.184L1526.11 72.624C1526.53 72.208 1526.85 71.8453 1527.07 71.536C1527.28 71.216 1527.43 70.9173 1527.5 70.64C1527.57 70.3627 1527.61 70.1013 1527.61 69.856C1527.61 69.2053 1527.39 68.6933 1526.94 68.32C1526.5 67.9467 1525.85 67.76 1524.99 67.76C1524.33 67.76 1523.74 67.8613 1523.23 68.064C1522.73 68.2667 1522.29 68.5813 1521.93 69.008L1521.12 68.304C1521.55 67.792 1522.11 67.3973 1522.8 67.12C1523.48 66.8427 1524.24 66.704 1525.08 66.704C1525.84 66.704 1526.5 66.8267 1527.05 67.072C1527.61 67.3067 1528.03 67.6533 1528.33 68.112C1528.64 68.5707 1528.8 69.1093 1528.8 69.728C1528.8 70.0907 1528.74 70.448 1528.64 70.8C1528.54 71.152 1528.36 71.5253 1528.09 71.92C1527.84 72.304 1527.46 72.7413 1526.96 73.232L1522.68 77.424L1522.36 76.976H1529.31V78H1521.45ZM1532.71 78V67.28L1533.22 67.824H1530.07V66.8H1533.86V78H1532.71ZM1549.91 66.8H1551.07V78H1549.91V66.8ZM1542.9 78H1541.71V66.8H1542.9V78ZM1550.02 72.832H1542.77V71.792H1550.02V72.832ZM1554.73 78V66.8H1555.91V76.976H1562.19V78H1554.73ZM1565.21 71.808H1571.13V72.816H1565.21V71.808ZM1565.34 76.976H1572.07V78H1564.15V66.8H1571.83V67.824H1565.34V76.976ZM1579.74 78.096C1578.88 78.096 1578.09 77.9573 1577.37 77.68C1576.65 77.392 1576.03 76.992 1575.5 76.48C1574.97 75.968 1574.56 75.3653 1574.26 74.672C1573.98 73.9787 1573.83 73.2213 1573.83 72.4C1573.83 71.5787 1573.98 70.8213 1574.26 70.128C1574.56 69.4347 1574.98 68.832 1575.51 68.32C1576.05 67.808 1576.67 67.4133 1577.38 67.136C1578.11 66.848 1578.9 66.704 1579.75 66.704C1580.61 66.704 1581.38 66.8373 1582.09 67.104C1582.8 67.3707 1583.41 67.776 1583.91 68.32L1583.18 69.072C1582.71 68.6027 1582.19 68.2667 1581.62 68.064C1581.06 67.8613 1580.45 67.76 1579.8 67.76C1579.11 67.76 1578.47 67.8773 1577.88 68.112C1577.3 68.336 1576.8 68.6613 1576.36 69.088C1575.93 69.504 1575.6 69.9947 1575.35 70.56C1575.12 71.1147 1575 71.728 1575 72.4C1575 73.0613 1575.12 73.6747 1575.35 74.24C1575.6 74.8053 1575.93 75.3013 1576.36 75.728C1576.8 76.144 1577.3 76.4693 1577.88 76.704C1578.47 76.928 1579.1 77.04 1579.78 77.04C1580.42 77.04 1581.03 76.944 1581.59 76.752C1582.17 76.56 1582.7 76.2347 1583.18 75.776L1583.85 76.672C1583.31 77.1413 1582.69 77.4987 1581.98 77.744C1581.26 77.9787 1580.51 78.096 1579.74 78.096ZM1582.71 76.528V72.4H1583.85V76.672L1582.71 76.528ZM1585.41 78L1590.53 66.8H1591.7L1596.82 78H1595.57L1590.86 67.488H1591.34L1586.64 78H1585.41ZM1587.42 75.008L1587.78 74.048H1594.29L1594.64 75.008H1587.42ZM1598.67 78V66.8H1599.85V76.976H1606.12V78H1598.67ZM1612.28 78V66.8H1613.46V76.976H1619.73V78H1612.28ZM1626.72 78V76.144L1626.68 75.84V72.736C1626.68 72.0213 1626.47 71.472 1626.07 71.088C1625.67 70.704 1625.08 70.512 1624.29 70.512C1623.75 70.512 1623.23 70.6027 1622.74 70.784C1622.25 70.9653 1621.83 71.2053 1621.49 71.504L1620.98 70.656C1621.41 70.2933 1621.92 70.016 1622.52 69.824C1623.11 69.6213 1623.74 69.52 1624.4 69.52C1625.49 69.52 1626.33 69.792 1626.92 70.336C1627.51 70.8693 1627.81 71.6853 1627.81 72.784V78H1626.72ZM1623.83 78.08C1623.2 78.08 1622.65 77.9787 1622.18 77.776C1621.72 77.5627 1621.37 77.2747 1621.12 76.912C1620.88 76.5387 1620.76 76.112 1620.76 75.632C1620.76 75.1947 1620.86 74.8 1621.06 74.448C1621.27 74.0853 1621.61 73.7973 1622.08 73.584C1622.56 73.36 1623.2 73.248 1624 73.248H1626.9V74.096H1624.04C1623.22 74.096 1622.66 74.24 1622.34 74.528C1622.03 74.816 1621.88 75.1733 1621.88 75.6C1621.88 76.08 1622.06 76.464 1622.44 76.752C1622.81 77.04 1623.33 77.184 1624 77.184C1624.64 77.184 1625.19 77.04 1625.65 76.752C1626.12 76.4533 1626.46 76.0267 1626.68 75.472L1626.93 76.256C1626.72 76.8107 1626.34 77.2533 1625.81 77.584C1625.29 77.9147 1624.63 78.08 1623.83 78.08ZM1632.45 78L1629.28 69.6H1630.37L1633.25 77.392H1632.76L1635.72 69.6H1636.69L1639.62 77.392H1639.12L1642.05 69.6H1643.09L1639.91 78H1638.84L1636.02 70.672H1636.36L1633.52 78H1632.45ZM1652.48 78.08C1651.65 78.08 1650.9 77.8987 1650.24 77.536C1649.59 77.1627 1649.08 76.656 1648.7 76.016C1648.33 75.3653 1648.14 74.624 1648.14 73.792C1648.14 72.9493 1648.33 72.208 1648.7 71.568C1649.08 70.928 1649.59 70.4267 1650.24 70.064C1650.9 69.7013 1651.65 69.52 1652.48 69.52C1653.19 69.52 1653.84 69.6587 1654.41 69.936C1654.99 70.2133 1655.44 70.6293 1655.77 71.184L1654.93 71.76C1654.64 71.3333 1654.28 71.0187 1653.85 70.816C1653.43 70.6133 1652.96 70.512 1652.46 70.512C1651.86 70.512 1651.33 70.6507 1650.85 70.928C1650.37 71.1947 1649.99 71.5733 1649.71 72.064C1649.43 72.5547 1649.29 73.1307 1649.29 73.792C1649.29 74.4533 1649.43 75.0293 1649.71 75.52C1649.99 76.0107 1650.37 76.3947 1650.85 76.672C1651.33 76.9387 1651.86 77.072 1652.46 77.072C1652.96 77.072 1653.43 76.9707 1653.85 76.768C1654.28 76.5653 1654.64 76.256 1654.93 75.84L1655.77 76.416C1655.44 76.96 1654.99 77.376 1654.41 77.664C1653.84 77.9413 1653.19 78.08 1652.48 78.08ZM1661.29 78.08C1660.48 78.08 1659.75 77.8987 1659.1 77.536C1658.46 77.1627 1657.95 76.656 1657.58 76.016C1657.2 75.3653 1657.02 74.624 1657.02 73.792C1657.02 72.9493 1657.2 72.208 1657.58 71.568C1657.95 70.928 1658.46 70.4267 1659.1 70.064C1659.74 69.7013 1660.47 69.52 1661.29 69.52C1662.12 69.52 1662.86 69.7013 1663.5 70.064C1664.15 70.4267 1664.65 70.928 1665.02 71.568C1665.39 72.208 1665.58 72.9493 1665.58 73.792C1665.58 74.624 1665.39 75.3653 1665.02 76.016C1664.65 76.656 1664.15 77.1627 1663.5 77.536C1662.85 77.8987 1662.11 78.08 1661.29 78.08ZM1661.29 77.072C1661.9 77.072 1662.44 76.9387 1662.91 76.672C1663.37 76.3947 1663.74 76.0107 1664.01 75.52C1664.29 75.0187 1664.43 74.4427 1664.43 73.792C1664.43 73.1307 1664.29 72.5547 1664.01 72.064C1663.74 71.5733 1663.37 71.1947 1662.91 70.928C1662.44 70.6507 1661.9 70.512 1661.31 70.512C1660.71 70.512 1660.17 70.6507 1659.71 70.928C1659.24 71.1947 1658.86 71.5733 1658.59 72.064C1658.31 72.5547 1658.17 73.1307 1658.17 73.792C1658.17 74.4427 1658.31 75.0187 1658.59 75.52C1658.86 76.0107 1659.24 76.3947 1659.71 76.672C1660.17 76.9387 1660.7 77.072 1661.29 77.072ZM1678.39 69.52C1679.08 69.52 1679.67 69.6533 1680.17 69.92C1680.68 70.176 1681.08 70.5707 1681.35 71.104C1681.64 71.6373 1681.78 72.3093 1681.78 73.12V78H1680.65V73.232C1680.65 72.3467 1680.44 71.68 1680.01 71.232C1679.59 70.7733 1679 70.544 1678.23 70.544C1677.66 70.544 1677.16 70.6667 1676.73 70.912C1676.31 71.1467 1675.99 71.4933 1675.75 71.952C1675.53 72.4 1675.42 72.944 1675.42 73.584V78H1674.28V73.232C1674.28 72.3467 1674.07 71.68 1673.64 71.232C1673.21 70.7733 1672.62 70.544 1671.85 70.544C1671.28 70.544 1670.79 70.6667 1670.36 70.912C1669.93 71.1467 1669.6 71.4933 1669.37 71.952C1669.14 72.4 1669.03 72.944 1669.03 73.584V78H1667.9V69.6H1668.98V71.872L1668.81 71.472C1669.06 70.864 1669.48 70.3893 1670.04 70.048C1670.62 69.696 1671.29 69.52 1672.07 69.52C1672.89 69.52 1673.59 69.728 1674.17 70.144C1674.74 70.5493 1675.12 71.1627 1675.29 71.984L1674.84 71.808C1675.09 71.1253 1675.52 70.576 1676.14 70.16C1676.77 69.7333 1677.52 69.52 1678.39 69.52ZM1689.2 78.08C1688.48 78.08 1687.82 77.9147 1687.23 77.584C1686.65 77.2427 1686.18 76.7573 1685.83 76.128C1685.48 75.488 1685.31 74.7093 1685.31 73.792C1685.31 72.8747 1685.48 72.1013 1685.83 71.472C1686.17 70.832 1686.63 70.3467 1687.22 70.016C1687.8 69.6853 1688.47 69.52 1689.2 69.52C1690 69.52 1690.72 69.7013 1691.35 70.064C1691.99 70.416 1692.49 70.9173 1692.85 71.568C1693.21 72.208 1693.39 72.9493 1693.39 73.792C1693.39 74.6453 1693.21 75.392 1692.85 76.032C1692.49 76.672 1691.99 77.1733 1691.35 77.536C1690.72 77.8987 1690 78.08 1689.2 78.08ZM1684.87 81.104V69.6H1685.95V72.128L1685.84 73.808L1686 75.504V81.104H1684.87ZM1689.12 77.072C1689.72 77.072 1690.25 76.9387 1690.72 76.672C1691.19 76.3947 1691.56 76.0107 1691.84 75.52C1692.12 75.0187 1692.26 74.4427 1692.26 73.792C1692.26 73.1413 1692.12 72.5707 1691.84 72.08C1691.56 71.5893 1691.19 71.2053 1690.72 70.928C1690.25 70.6507 1689.72 70.512 1689.12 70.512C1688.52 70.512 1687.99 70.6507 1687.51 70.928C1687.04 71.2053 1686.66 71.5893 1686.39 72.08C1686.12 72.5707 1685.99 73.1413 1685.99 73.792C1685.99 74.4427 1686.12 75.0187 1686.39 75.52C1686.66 76.0107 1687.04 76.3947 1687.51 76.672C1687.99 76.9387 1688.52 77.072 1689.12 77.072ZM1700.93 78V76.144L1700.88 75.84V72.736C1700.88 72.0213 1700.68 71.472 1700.27 71.088C1699.88 70.704 1699.28 70.512 1698.49 70.512C1697.95 70.512 1697.43 70.6027 1696.94 70.784C1696.45 70.9653 1696.04 71.2053 1695.69 71.504L1695.18 70.656C1695.61 70.2933 1696.12 70.016 1696.72 69.824C1697.32 69.6213 1697.94 69.52 1698.61 69.52C1699.69 69.52 1700.53 69.792 1701.12 70.336C1701.72 70.8693 1702.01 71.6853 1702.01 72.784V78H1700.93ZM1698.03 78.08C1697.4 78.08 1696.85 77.9787 1696.38 77.776C1695.92 77.5627 1695.57 77.2747 1695.33 76.912C1695.08 76.5387 1694.96 76.112 1694.96 75.632C1694.96 75.1947 1695.06 74.8 1695.26 74.448C1695.48 74.0853 1695.82 73.7973 1696.29 73.584C1696.77 73.36 1697.41 73.248 1698.21 73.248H1701.1V74.096H1698.24C1697.43 74.096 1696.86 74.24 1696.54 74.528C1696.23 74.816 1696.08 75.1733 1696.08 75.6C1696.08 76.08 1696.26 76.464 1696.64 76.752C1697.01 77.04 1697.53 77.184 1698.21 77.184C1698.85 77.184 1699.4 77.04 1699.85 76.752C1700.32 76.4533 1700.66 76.0267 1700.88 75.472L1701.13 76.256C1700.92 76.8107 1700.55 77.2533 1700.01 77.584C1699.49 77.9147 1698.83 78.08 1698.03 78.08ZM1709.39 69.52C1710.07 69.52 1710.67 69.6533 1711.18 69.92C1711.7 70.176 1712.11 70.5707 1712.4 71.104C1712.69 71.6373 1712.84 72.3093 1712.84 73.12V78H1711.71V73.232C1711.71 72.3467 1711.48 71.68 1711.04 71.232C1710.6 70.7733 1709.98 70.544 1709.18 70.544C1708.58 70.544 1708.06 70.6667 1707.61 70.912C1707.17 71.1467 1706.83 71.4933 1706.59 71.952C1706.35 72.4 1706.24 72.944 1706.24 73.584V78H1705.1V69.6H1706.19V71.904L1706.01 71.472C1706.28 70.864 1706.7 70.3893 1707.29 70.048C1707.88 69.696 1708.58 69.52 1709.39 69.52ZM1715.82 81.184C1715.43 81.184 1715.05 81.12 1714.68 80.992C1714.33 80.864 1714.03 80.672 1713.77 80.416L1714.3 79.568C1714.51 79.7707 1714.74 79.9253 1714.99 80.032C1715.24 80.1493 1715.53 80.208 1715.84 80.208C1716.21 80.208 1716.53 80.1013 1716.8 79.888C1717.07 79.6853 1717.33 79.3227 1717.58 78.8L1718.12 77.568L1718.25 77.392L1721.71 69.6H1722.83L1718.62 79.008C1718.39 79.552 1718.12 79.984 1717.84 80.304C1717.56 80.624 1717.25 80.848 1716.92 80.976C1716.59 81.1147 1716.23 81.184 1715.82 81.184ZM1718.06 78.24L1714.19 69.6H1715.37L1718.8 77.312L1718.06 78.24ZM1723.19 80.336L1723.9 77.376L1724.02 78.064C1723.78 78.064 1723.57 77.984 1723.4 77.824C1723.24 77.664 1723.16 77.456 1723.16 77.2C1723.16 76.944 1723.24 76.736 1723.4 76.576C1723.57 76.416 1723.77 76.336 1724.01 76.336C1724.25 76.336 1724.45 76.4213 1724.6 76.592C1724.76 76.7627 1724.84 76.9653 1724.84 77.2C1724.84 77.2853 1724.84 77.3707 1724.82 77.456C1724.81 77.5413 1724.79 77.6373 1724.76 77.744C1724.73 77.8507 1724.69 77.9787 1724.63 78.128L1723.96 80.336H1723.19ZM1731.7 78V66.8H1732.88V76.976H1739.16V78H1731.7ZM1741.12 78V66.8H1742.3V76.976H1748.58V78H1741.12ZM1755.19 78.096C1754.35 78.096 1753.57 77.9573 1752.85 77.68C1752.14 77.392 1751.52 76.992 1751 76.48C1750.47 75.968 1750.06 75.3653 1749.76 74.672C1749.48 73.9787 1749.33 73.2213 1749.33 72.4C1749.33 71.5787 1749.48 70.8213 1749.76 70.128C1750.06 69.4347 1750.47 68.832 1751 68.32C1751.53 67.808 1752.15 67.4133 1752.87 67.136C1753.58 66.848 1754.36 66.704 1755.2 66.704C1756.01 66.704 1756.78 66.8427 1757.49 67.12C1758.21 67.3867 1758.81 67.792 1759.3 68.336L1758.55 69.088C1758.09 68.6187 1757.58 68.2827 1757.03 68.08C1756.47 67.8667 1755.88 67.76 1755.24 67.76C1754.56 67.76 1753.94 67.8773 1753.36 68.112C1752.79 68.336 1752.29 68.6613 1751.86 69.088C1751.43 69.504 1751.1 69.9947 1750.85 70.56C1750.62 71.1147 1750.5 71.728 1750.5 72.4C1750.5 73.072 1750.62 73.6907 1750.85 74.256C1751.1 74.8107 1751.43 75.3013 1751.86 75.728C1752.29 76.144 1752.79 76.4693 1753.36 76.704C1753.94 76.928 1754.56 77.04 1755.24 77.04C1755.88 77.04 1756.47 76.9333 1757.03 76.72C1757.58 76.5067 1758.09 76.1653 1758.55 75.696L1759.3 76.448C1758.81 76.992 1758.21 77.4027 1757.49 77.68C1756.78 77.9573 1756.01 78.096 1755.19 78.096Z" fill="#B3B3BA"/>
<defs>
<clipPath id="clip0_22728_11491">
<rect width="398" height="79" fill="white" transform="translate(160 62)"/>
</clipPath>
<clipPath id="clip1_22728_11491">
<rect width="38" height="38" fill="white" transform="translate(160 103)"/>
</clipPath>
</defs>
</svg>
