<svg xmlns="http://www.w3.org/2000/svg" style="display:none">

  <symbol id="icon-facebook" viewBox="0 0 24 24">
    <path fill="currentColor" d="M14 8.5V7.1c0-.7.5-1.1 1.2-1.1H17V3h-2.1C12.8 3 12 4.4 12 6.7v1.8H10v3h2V21h3v-9.5h2.2l.3-3H15z"/>
  </symbol>

  <symbol id="icon-arrow-down" viewBox="0 0 24 24">
    <path d="M12 16.5l-6-6 1.4-1.4L12 13.7l4.6-4.6L18 10.5l-6 6z" fill="currentColor"/>
  </symbol>

  <!-- Services icons (line style like in макет) -->
  <symbol id="icon-bag" viewBox="0 0 64 64">
    <g fill="none" stroke="currentColor" stroke-width="3.5" stroke-linecap="round" stroke-linejoin="round">
      <path d="M20 22v-4a12 12 0 0 1 24 0v4"/>
      <path d="M16 22h32l-2.5 32a4 4 0 0 1-4 3.6H22.5a4 4 0 0 1-4-3.6L16 22z"/>
      <path d="M24 30v2"/>
      <path d="M40 30v2"/>
    </g>
  </symbol>

  <symbol id="icon-briefcase" viewBox="0 0 64 64">
    <g fill="none" stroke="currentColor" stroke-width="3.5" stroke-linecap="round" stroke-linejoin="round">
      <path d="M24 18h16a4 4 0 0 1 4 4v6H20v-6a4 4 0 0 1 4-4z"/>
      <path d="M26 18v-2a3 3 0 0 1 3-3h6a3 3 0 0 1 3 3v2"/>
      <path d="M14 28h36v22a5 5 0 0 1-5 5H19a5 5 0 0 1-5-5V28z"/>
      <path d="M14 36c6 4 14 6 18 6s12-2 18-6"/>
      <path d="M30 40h4"/>
    </g>
  </symbol>

  <symbol id="icon-gear" viewBox="0 0 64 64">
    <g fill="none" stroke="currentColor" stroke-width="3.5" stroke-linecap="round" stroke-linejoin="round">
      <path d="M36 14l2.2 5.2a18 18 0 0 1 4.6 2.6l5.6-1.6 3 5.2-4.3 3.8a18 18 0 0 1 0 5.2l4.3 3.8-3 5.2-5.6-1.6a18 18 0 0 1-4.6 2.6L36 50H28l-2.2-5.2a18 18 0 0 1-4.6-2.6l-5.6 1.6-3-5.2 4.3-3.8a18 18 0 0 1 0-5.2l-4.3-3.8 3-5.2 5.6 1.6a18 18 0 0 1 4.6-2.6L28 14h8z"/>
      <circle cx="32" cy="32" r="7"/>
    </g>
  </symbol>

  <symbol id="icon-handshake" viewBox="0 0 64 64">
    <g fill="none" stroke="currentColor" stroke-width="3.5" stroke-linecap="round" stroke-linejoin="round">
      <path d="M10 34l10-10 10 10"/>
      <path d="M54 34L44 24 34 34"/>
      <path d="M22 34l6 6a5 5 0 0 0 7 0l7-7"/>
      <path d="M28 40l-3 3a4 4 0 0 1-6 0l-5-5"/>
      <path d="M34 40l3 3a4 4 0 0 0 6 0l5-5"/>
      <path d="M26 30l6-6 6 6"/>
    </g>
  </symbol>

  <symbol id="icon-shield" viewBox="0 0 64 64">
    <g fill="none" stroke="currentColor" stroke-width="3.5" stroke-linecap="round" stroke-linejoin="round">
      <path d="M32 10l18 7v16c0 14-8.5 20.8-18 23-9.5-2.2-18-9-18-23V17l18-7z"/>
      <path d="M24 32l6 6 12-12"/>
    </g>
  </symbol>

  <symbol id="icon-gavel" viewBox="0 0 64 64">
    <g fill="none" stroke="currentColor" stroke-width="3.5" stroke-linecap="round" stroke-linejoin="round">
      <path d="M14 50h20"/>
      <path d="M18 46l14 14"/>
      <path d="M24 20l10-10 12 12-10 10-12-12z"/>
      <path d="M20 24l12 12"/>
      <path d="M36 30l8 8"/>
      <path d="M44 38l10-10"/>
    </g>
  </symbol>

</svg>
